  0
SECTION
  2
HEADER
  9
$ACADVER
  1
AC1009
  9
$INSBASE
 10
0.0
 20
0.0
 30
0.0
  9
$EXTMIN
 10
0.0
 20
0.0
 30
0.0
  9
$EXTMAX
 10
0.0
 20
0.0
 30
0.0
  0
ENDSEC
  0
SECTION
  2
TABLES
  0
TABLE
  2
VPORT
 70
0
  0
ENDTAB
  0
TABLE
  2
LTYPE
 70
1
  0
LTYPE
  2
CONTINUOUS
 70
0
  3
Solid line
 72
65
 73
0
 40
0.0
  0
ENDTAB
  0
TABLE
  2
LAYER
 70
1
  0
LAYER
  2
0
 70
64
 62
7
  6
continuous
  0
ENDTAB
  0
TABLE
  2
STYLE
 70
1
  0
STYLE
  2
STANDARD
 70
0
 40
0
 41
1.0
 50
0.0
 71
0
 42
1
 3
ARIAL.TTF
 4

  0
ENDTAB
  0
TABLE
  2
VIEW
 70
0
  0
ENDTAB
  0
ENDSEC
  0
SECTION
  2
BLOCKS
  0
BLOCK
  8
0
  2
CUT089
 70
0
 10
0.0
 20
0.0
 30
0.0
  3
CUT089
  0
LINE
  8
0
 62
0
 10
0.0
 20
60.0
 30
0.0
 11
0.0
 21
140.0
 31
0.0
  0
LINE
  8
0
 62
0
 10
10.0
 20
150.0
 30
0.0
 11
63.3974596216
 21
150.0
 31
0.0
  0
ARC
  8
0
 62
0
 10
10.0
 20
140.0
 30
0.0
 40
10.0
 50
90.0
 51
180.0
  0
ARC
  8
0
 62
0
 10
150.0
 20
100.0
 30
0.0
 40
100.0
 50
115.841932763
 51
150.0
  0
LINE
  8
0
 62
0
 10
106.411010565
 20
190.0
 30
0.0
 11
193.588989435
 21
190.0
 31
0.0
  0
ARC
  8
0
 62
0
 10
10.0
 20
60.0
 30
0.0
 40
10.0
 50
-180.0
 51
-90.0
  0
ARC
  8
0
 62
0
 10
150.0
 20
100.0
 30
0.0
 40
100.0
 50
0.0
 51
64.1580672368
  0
LINE
  8
0
 62
0
 10
10.0
 20
50.0
 30
0.0
 11
63.3974596216
 21
50.0
 31
0.0
  0
ARC
  8
0
 62
0
 10
150.0
 20
100.0
 30
0.0
 40
100.0
 50
-64.1580672368
 51
0.0
  0
ARC
  8
0
 62
0
 10
150.0
 20
100.0
 30
0.0
 40
100.0
 50
-150.0
 51
-115.841932763
  0
LINE
  8
0
 62
0
 10
106.411010565
 20
10.0
 30
0.0
 11
193.588989435
 21
10.0
 31
0.0
  0
LINE
  8
0
 62
0
 10
72.0
 20
79.0
 30
0.0
 11
72.0
 21
121.0
 31
0.0
  0
LINE
  8
0
 62
0
 10
72.0
 20
79.0
 30
0.0
 11
15.0
 21
79.0
 31
0.0
  0
LINE
  8
0
 62
0
 10
72.0
 20
121.0
 30
0.0
 11
15.0
 21
121.0
 31
0.0
  0
LINE
  8
0
 62
0
 10
15.0
 20
79.0
 30
0.0
 11
15.0
 21
121.0
 31
0.0
  0
CIRCLE
  8
0
 62
0
 10
50.0
 20
55.0
 30
0.0
 40
2.5
  0
CIRCLE
  8
0
 62
0
 10
35.0
 20
70.0
 30
0.0
 40
2.5
  0
CIRCLE
  8
0
 62
0
 10
25.0
 20
55.0
 30
0.0
 40
2.5
  0
CIRCLE
  8
0
 62
0
 10
60.0
 20
70.0
 30
0.0
 40
2.5
  0
CIRCLE
  8
0
 62
0
 10
25.0
 20
145.0
 30
0.0
 40
2.5
  0
CIRCLE
  8
0
 62
0
 10
50.0
 20
145.0
 30
0.0
 40
2.5
  0
CIRCLE
  8
0
 62
0
 10
60.0
 20
135.0
 30
0.0
 40
2.5
  0
CIRCLE
  8
0
 62
0
 10
35.0
 20
135.0
 30
0.0
 40
2.5
  0
CIRCLE
  8
0
 62
0
 10
188.035643557
 20
181.567700833
 30
0.0
 40
3.0
  0
CIRCLE
  8
0
 62
0
 10
111.964356443
 20
181.567700833
 30
0.0
 40
3.0
  0
CIRCLE
  8
0
 62
0
 10
188.035643557
 20
18.4322991667
 30
0.0
 40
3.0
  0
CIRCLE
  8
0
 62
0
 10
111.9644
 20
18.4323
 30
0.0
 40
3.0
  0
CIRCLE
  8
0
 62
0
 10
86.3604
 20
36.3604
 30
0.0
 40
3.0
  0
CIRCLE
  8
0
 62
0
 10
213.639610307
 20
36.3603896932
 30
0.0
 40
3.0
  0
CIRCLE
  8
0
 62
0
 10
150.0
 20
100.0
 30
0.0
 40
75.0
  0
CIRCLE
  8
0
 62
0
 10
86.3603896932
 20
163.639610307
 30
0.0
 40
3.0
  0
CIRCLE
  8
0
 62
0
 10
213.639610307
 20
163.639610307
 30
0.0
 40
3.0
  0
CIRCLE
  8
0
 62
0
 10
150.0
 20
100.0
 30
0.0
 40
62.0
  0
ENDBLK
  0
ENDSEC
  0
SECTION
  2
ENTITIES
  0
INSERT
  2
CUT089
  8
0
 62
0
 10
0.0
 20
0.0
 30
0.0
  0
ENDSEC
  0
EOF
